<svg width="16" height="18" viewBox="0 0 16 18" fill="none" xmlns="http://www.w3.org/2000/svg">
<path d="M11.3023 10.9015C10.3576 10.9015 9.90333 11.4238 8.35292 11.4238C6.80251 11.4238 6.35154 10.9015 5.40351 10.9015C2.96103 10.9015 0.979401 12.8667 0.979401 15.2888V16.1245C0.979401 16.9895 1.68713 17.6913 2.55944 17.6913H14.1464C15.0187 17.6913 15.7264 16.9895 15.7264 16.1245V15.2888C15.7264 12.8667 13.7448 10.9015 11.3023 10.9015ZM14.1464 16.1245H2.55944V15.2888C2.55944 13.735 3.83664 12.4684 5.40351 12.4684C5.88411 12.4684 6.66425 12.9907 8.35292 12.9907C10.0548 12.9907 10.8184 12.4684 11.3023 12.4684C12.8692 12.4684 14.1464 13.735 14.1464 15.2888V16.1245ZM8.35292 10.3793C10.9699 10.3793 13.093 8.27377 13.093 5.67864C13.093 3.08351 10.9699 0.97802 8.35292 0.97802C5.73598 0.97802 3.6128 3.08351 3.6128 5.67864C3.6128 8.27377 5.73598 10.3793 8.35292 10.3793ZM8.35292 2.54489C10.0943 2.54489 11.513 3.95181 11.513 5.67864C11.513 7.40546 10.0943 8.81238 8.35292 8.81238C6.61158 8.81238 5.19284 7.40546 5.19284 5.67864C5.19284 3.95181 6.61158 2.54489 8.35292 2.54489Z" fill="#373A3C"/>
</svg>
