<svg width="18" height="18" viewBox="0 0 18 18" fill="none" xmlns="http://www.w3.org/2000/svg">
<path d="M12.6982 9.8079C13.3111 9.8079 13.8505 9.46624 14.1284 8.94957L17.0541 3.54124C17.3565 2.99124 16.9642 2.3079 16.3431 2.3079H4.24777L3.47955 0.641235H0.807129V2.3079H2.44164L5.38375 8.6329L4.28046 10.6662C3.68386 11.7829 4.46843 13.1412 5.71065 13.1412H15.5177V11.4746H5.71065L6.60963 9.8079H12.6982ZM5.02416 3.97457H14.9538L12.6982 8.14124H6.96105L5.02416 3.97457ZM5.71065 13.9746C4.81167 13.9746 4.08432 14.7246 4.08432 15.6412C4.08432 16.5579 4.81167 17.3079 5.71065 17.3079C6.60963 17.3079 7.34516 16.5579 7.34516 15.6412C7.34516 14.7246 6.60963 13.9746 5.71065 13.9746ZM13.8832 13.9746C12.9842 13.9746 12.2569 14.7246 12.2569 15.6412C12.2569 16.5579 12.9842 17.3079 13.8832 17.3079C14.7822 17.3079 15.5177 16.5579 15.5177 15.6412C15.5177 14.7246 14.7822 13.9746 13.8832 13.9746Z" fill="#373A3C"/>
</svg>
