<svg width="18" height="19" viewBox="0 0 18 19" fill="none" xmlns="http://www.w3.org/2000/svg">
<path d="M9 0.370895C4.18359 0.370895 0.28125 4.48839 0.28125 9.57034C0.28125 14.6523 4.18359 18.7698 9 18.7698C13.8164 18.7698 17.7188 14.6523 17.7188 9.57034C17.7188 4.48839 13.8164 0.370895 9 0.370895ZM9 16.9892C5.11523 16.9892 1.96875 13.6693 1.96875 9.57034C1.96875 5.47139 5.11523 2.15143 9 2.15143C12.8848 2.15143 16.0312 5.47139 16.0312 9.57034C16.0312 13.6693 12.8848 16.9892 9 16.9892ZM12.5789 7.26306L10.3922 9.57034L12.5789 11.8776C12.7441 12.052 12.7441 12.3339 12.5789 12.5082L11.7844 13.3466C11.6191 13.5209 11.352 13.5209 11.1867 13.3466L9 11.0393L6.81328 13.3466C6.64805 13.5209 6.38086 13.5209 6.21563 13.3466L5.42109 12.5082C5.25586 12.3339 5.25586 12.052 5.42109 11.8776L7.60781 9.57034L5.42109 7.26306C5.25586 7.08871 5.25586 6.80679 5.42109 6.63245L6.21563 5.79411C6.38086 5.61977 6.64805 5.61977 6.81328 5.79411L9 8.10139L11.1867 5.79411C11.352 5.61977 11.6191 5.61977 11.7844 5.79411L12.5789 6.63245C12.7441 6.80679 12.7441 7.08871 12.5789 7.26306Z" fill="#999999"/>
</svg>
