<svg width="18" height="20" viewBox="0 0 18 20" fill="none" xmlns="http://www.w3.org/2000/svg">
<path d="M17.503 17.1744L14.0809 13.408C13.9264 13.238 13.717 13.1435 13.4974 13.1435H12.9379C13.8852 11.81 14.4481 10.1326 14.4481 8.30797C14.4481 3.96731 11.2526 0.450195 7.30874 0.450195C3.36491 0.450195 0.169342 3.96731 0.169342 8.30797C0.169342 12.6486 3.36491 16.1657 7.30874 16.1657C8.96659 16.1657 10.4906 15.5462 11.7022 14.5035V15.1193C11.7022 15.3611 11.788 15.5915 11.9425 15.7615L15.3646 19.528C15.6872 19.8831 16.209 19.8831 16.5282 19.528L17.4995 18.4589C17.8222 18.1038 17.8222 17.5295 17.503 17.1744ZM7.30874 13.1435C4.88203 13.1435 2.91526 10.9826 2.91526 8.30797C2.91526 5.63708 4.8786 3.47242 7.30874 3.47242C9.73544 3.47242 11.7022 5.63331 11.7022 8.30797C11.7022 10.9789 9.73888 13.1435 7.30874 13.1435Z" fill="black" fill-opacity="0.4"/>
</svg>
