<svg width="134" height="151" viewBox="0 0 134 151" fill="none" xmlns="http://www.w3.org/2000/svg">
<path d="M61.4948 94.8078C61.7492 97.3163 63.8261 99.1837 66.246 99.1837C66.4105 99.1837 66.5763 99.1752 66.7434 99.1577C69.3706 98.8807 71.2804 96.4846 71.0087 93.8058L68.803 72.0445C68.5314 69.3657 66.1803 67.4209 63.5544 67.6953C60.9272 67.9723 59.0174 70.3683 59.2891 73.0472L61.4948 94.8078Z" fill="black" fill-opacity="0.4"/>
<path d="M91.4242 99.1577C91.5912 99.1752 91.757 99.1837 91.9215 99.1837C94.3421 99.1837 96.4184 97.3163 96.6728 94.8078L98.8778 73.0465C99.1495 70.367 97.2397 67.971 94.6125 67.6946C91.9834 67.4209 89.6349 69.3657 89.3632 72.0439L87.1582 93.8051C86.8865 96.4847 88.7963 98.8807 91.4242 99.1577Z" fill="black" fill-opacity="0.4"/>
<path d="M54.3931 120.355C46.2304 120.355 39.5897 127.126 39.5897 135.449C39.5897 143.774 46.2304 150.548 54.3931 150.548C62.5558 150.548 69.1971 143.774 69.1971 135.449C69.1971 127.126 62.5558 120.355 54.3931 120.355ZM54.3931 140.794C51.5045 140.794 49.1547 138.396 49.1547 135.449C49.1547 132.503 51.5045 130.107 54.3931 130.107C57.2817 130.107 59.6322 132.503 59.6322 135.449C59.6322 138.396 57.2817 140.794 54.3931 140.794Z" fill="black" fill-opacity="0.4"/>
<path d="M103.774 120.355C95.6117 120.355 88.9705 127.126 88.9705 135.449C88.9705 143.774 95.6111 150.548 103.774 150.548C111.938 150.548 118.58 143.774 118.58 135.449C118.58 127.126 111.938 120.355 103.774 120.355ZM103.774 140.794C100.886 140.794 98.5354 138.396 98.5354 135.449C98.5354 132.503 100.886 130.107 103.774 130.107C106.664 130.107 109.015 132.503 109.015 135.449C109.015 138.396 106.664 140.794 103.774 140.794Z" fill="black" fill-opacity="0.4"/>
<path d="M132.381 51.427C131.475 50.2325 130.078 49.5329 128.598 49.5329H33.2698L29.2666 33.8362C28.7182 31.6872 26.8154 30.1872 24.6378 30.1872H5.03657C2.39537 30.1872 0.254089 32.3706 0.254089 35.0638C0.254089 37.7569 2.39537 39.9404 5.03657 39.9404H20.9399L24.9107 55.5103C24.9304 55.5974 24.9528 55.6839 24.977 55.7691L39.7434 113.668C40.2918 115.817 42.1946 117.317 44.3722 117.317H113.797C115.975 117.317 117.878 115.817 118.426 113.668L133.226 55.6364C133.599 54.1767 133.286 52.6221 132.381 51.427ZM110.099 107.565H48.07L35.7573 59.2867H122.413L110.099 107.565Z" fill="black" fill-opacity="0.4"/>
<path d="M60.3093 34.3726C61.2429 35.3239 62.4666 35.7999 63.6902 35.7999C64.9145 35.7999 66.1389 35.3232 67.073 34.3707C68.9401 32.4656 68.9395 29.3777 67.0711 27.4739L52.0305 12.1445C50.1622 10.2407 47.1345 10.2414 45.2668 12.1458C43.3997 14.0509 43.4004 17.1388 45.2681 19.0426L60.3093 34.3726Z" fill="black" fill-opacity="0.15"/>
<path d="M94.4996 35.7992C95.7239 35.7992 96.9489 35.3226 97.883 34.3694L112.901 19.042C114.768 17.1369 114.766 14.049 112.898 12.1458C111.03 10.242 108.002 10.244 106.135 12.1491L91.1168 27.4765C89.2497 29.3816 89.2516 32.4695 91.12 34.3733C92.0535 35.3239 93.2766 35.7992 94.4996 35.7992Z" fill="black" fill-opacity="0.15"/>
<path d="M79.0885 31.4207C79.0892 31.4207 79.0892 31.4207 79.0898 31.4207C81.7304 31.4207 83.8717 29.2379 83.8723 26.5454L83.8774 4.88621C83.8781 2.19304 81.7374 0.00898151 79.0962 0.0083313C79.0956 0.0083313 79.0956 0.0083313 79.0956 0.0083313C76.4544 0.0083313 74.3131 2.19109 74.3124 4.88361L74.3073 26.5428C74.3067 29.236 76.4473 31.42 79.0885 31.4207Z" fill="black" fill-opacity="0.15"/>
</svg>
